<svg xmlns="http://www.w3.org/2000/svg" viewBox="0 0 64 64">
  <!-- Sun -->
  <circle cx="22" cy="22" r="10" fill="#FBBF24"/>

  <!-- Sun rays -->
  <g stroke="#FBBF24" stroke-width="2" stroke-linecap="round">
    <line x1="22" y1="5" x2="22" y2="11"/>
    <line x1="22" y1="33" x2="22" y2="39"/>
    <line x1="5" y1="22" x2="11" y2="22"/>
    <line x1="33" y1="22" x2="39" y2="22"/>
    <line x1="10" y1="10" x2="14" y2="14"/>
    <line x1="30" y1="30" x2="34" y2="34"/>
    <line x1="10" y1="34" x2="14" y2="30"/>
    <line x1="30" y1="14" x2="34" y2="10"/>
  </g>

  <!-- Cloud -->
  <path
    d="M20 46
       C20 37 27 31 35 31
       C38 24 45 21 52 24
       C58 24 63 29 63 36
       C63 42 58 47 52 47
       H20
       C14 47 10 43 10 37
       C10 31 14 27 20 27"
    fill="#3B82F6"/>
</svg>
